<mxfile host="Electron" agent="Mozilla/5.0 (Macintosh; Intel Mac OS X 10_15_7) AppleWebKit/537.36 (KHTML, like Gecko) draw.io/24.7.17 Chrome/128.0.6613.36 Electron/32.0.1 Safari/537.36" version="24.7.17">
  <diagram name="Page-1" id="-40GemzrTVIT1uJVE3mi">
    <mxGraphModel dx="811" dy="1231" grid="0" gridSize="10" guides="0" tooltips="1" connect="1" arrows="1" fold="1" page="0" pageScale="1" pageWidth="850" pageHeight="1100" background="#ffffff" math="0" shadow="0">
      <root>
        <mxCell id="0" />
        <mxCell id="1" parent="0" />
        <mxCell id="SR5IjzYJObsN_hZiN2k8-2" style="edgeStyle=orthogonalEdgeStyle;rounded=1;orthogonalLoop=1;jettySize=auto;html=1;curved=0;strokeColor=#666666;" parent="1" source="pQPK47cY3aiJMa17ZVE6-2" target="pQPK47cY3aiJMa17ZVE6-5" edge="1">
          <mxGeometry relative="1" as="geometry" />
        </mxCell>
        <mxCell id="pQPK47cY3aiJMa17ZVE6-2" value="Start" style="ellipse;whiteSpace=wrap;html=1;strokeColor=#666666;fillColor=#ffffff;fontColor=#000000;" parent="1" vertex="1">
          <mxGeometry x="560" y="-31" width="40" height="26.67" as="geometry" />
        </mxCell>
        <mxCell id="pQPK47cY3aiJMa17ZVE6-7" style="edgeStyle=orthogonalEdgeStyle;rounded=1;orthogonalLoop=1;jettySize=auto;html=1;exitX=1;exitY=0.5;exitDx=0;exitDy=0;entryX=0;entryY=0.5;entryDx=0;entryDy=0;strokeColor=#666666;curved=0;fontColor=#000000;labelBackgroundColor=none;" parent="1" edge="1">
          <mxGeometry relative="1" as="geometry">
            <mxPoint x="350" y="90" as="targetPoint" />
          </mxGeometry>
        </mxCell>
        <mxCell id="pQPK47cY3aiJMa17ZVE6-13" value="No" style="edgeStyle=orthogonalEdgeStyle;rounded=1;orthogonalLoop=1;jettySize=auto;html=1;exitX=0.5;exitY=1;exitDx=0;exitDy=0;entryX=0.5;entryY=0;entryDx=0;entryDy=0;strokeColor=#666666;curved=0;fontColor=#000000;labelBackgroundColor=none;" parent="1" source="pQPK47cY3aiJMa17ZVE6-5" target="pQPK47cY3aiJMa17ZVE6-12" edge="1">
          <mxGeometry x="-0.0571" y="-10" relative="1" as="geometry">
            <mxPoint as="offset" />
          </mxGeometry>
        </mxCell>
        <mxCell id="SR5IjzYJObsN_hZiN2k8-3" value="Yes" style="edgeStyle=orthogonalEdgeStyle;rounded=1;orthogonalLoop=1;jettySize=auto;html=1;curved=0;strokeColor=#666666;labelBackgroundColor=none;fontColor=#000000;" parent="1" source="pQPK47cY3aiJMa17ZVE6-5" target="pQPK47cY3aiJMa17ZVE6-37" edge="1">
          <mxGeometry x="-0.2973" y="7" relative="1" as="geometry">
            <mxPoint as="offset" />
            <mxPoint x="685" y="90" as="targetPoint" />
            <Array as="points">
              <mxPoint x="699" y="90" />
              <mxPoint x="699" y="90" />
            </Array>
          </mxGeometry>
        </mxCell>
        <mxCell id="pQPK47cY3aiJMa17ZVE6-5" value="Last operation for Instance ID is deprovisioning?" style="rhombus;whiteSpace=wrap;html=1;strokeColor=#666666;fillColor=#ffffff;fontColor=#000000;" parent="1" vertex="1">
          <mxGeometry x="510" y="20" width="140" height="140" as="geometry" />
        </mxCell>
        <mxCell id="pQPK47cY3aiJMa17ZVE6-16" style="edgeStyle=orthogonalEdgeStyle;rounded=1;orthogonalLoop=1;jettySize=auto;html=1;strokeColor=#666666;curved=0;fontColor=#000000;labelBackgroundColor=none;entryX=0;entryY=0.5;entryDx=0;entryDy=0;" parent="1" source="pQPK47cY3aiJMa17ZVE6-12" target="pQPK47cY3aiJMa17ZVE6-15" edge="1">
          <mxGeometry relative="1" as="geometry">
            <mxPoint x="472" y="392" as="targetPoint" />
          </mxGeometry>
        </mxCell>
        <mxCell id="pQPK47cY3aiJMa17ZVE6-12" value="Load Binding for Instance and Binding ids" style="whiteSpace=wrap;html=1;strokeColor=#666666;fillColor=#ffffff;fontColor=#000000;rounded=1;" parent="1" vertex="1">
          <mxGeometry x="520" y="236" width="120" height="60" as="geometry" />
        </mxCell>
        <mxCell id="pQPK47cY3aiJMa17ZVE6-18" value="No" style="edgeStyle=orthogonalEdgeStyle;rounded=1;orthogonalLoop=1;jettySize=auto;html=1;exitX=0.5;exitY=0;exitDx=0;exitDy=0;strokeColor=#666666;curved=0;fontColor=#000000;labelBackgroundColor=none;" parent="1" source="pQPK47cY3aiJMa17ZVE6-15" target="pQPK47cY3aiJMa17ZVE6-37" edge="1">
          <mxGeometry x="-0.0072" y="9" relative="1" as="geometry">
            <mxPoint x="744" y="180" as="targetPoint" />
            <mxPoint as="offset" />
          </mxGeometry>
        </mxCell>
        <mxCell id="pQPK47cY3aiJMa17ZVE6-20" value="Yes" style="edgeStyle=orthogonalEdgeStyle;rounded=1;orthogonalLoop=1;jettySize=auto;html=1;exitX=1;exitY=0.5;exitDx=0;exitDy=0;strokeColor=#666666;curved=0;fontColor=#000000;labelBackgroundColor=none;" parent="1" source="pQPK47cY3aiJMa17ZVE6-15" target="pQPK47cY3aiJMa17ZVE6-19" edge="1">
          <mxGeometry x="-0.0571" y="-8" relative="1" as="geometry">
            <mxPoint as="offset" />
          </mxGeometry>
        </mxCell>
        <mxCell id="pQPK47cY3aiJMa17ZVE6-15" value="Binding &lt;br&gt;exists?" style="rhombus;whiteSpace=wrap;html=1;strokeColor=#666666;fillColor=#ffffff;fontColor=#000000;" parent="1" vertex="1">
          <mxGeometry x="667" y="221" width="91" height="91" as="geometry" />
        </mxCell>
        <mxCell id="pQPK47cY3aiJMa17ZVE6-22" value="Yes" style="edgeStyle=orthogonalEdgeStyle;rounded=1;orthogonalLoop=1;jettySize=auto;html=1;exitX=0.5;exitY=0;exitDx=0;exitDy=0;strokeColor=#666666;curved=0;fontColor=#000000;labelBackgroundColor=none;entryX=1;entryY=0.5;entryDx=0;entryDy=0;" parent="1" source="pQPK47cY3aiJMa17ZVE6-19" target="pQPK47cY3aiJMa17ZVE6-37" edge="1">
          <mxGeometry x="-0.8541" y="11" relative="1" as="geometry">
            <mxPoint x="901.5" y="187" as="targetPoint" />
            <mxPoint as="offset" />
            <Array as="points">
              <mxPoint x="845" y="93" />
            </Array>
          </mxGeometry>
        </mxCell>
        <mxCell id="pQPK47cY3aiJMa17ZVE6-24" value="No" style="edgeStyle=orthogonalEdgeStyle;rounded=1;orthogonalLoop=1;jettySize=auto;html=1;exitX=0.955;exitY=0.498;exitDx=0;exitDy=0;strokeColor=#666666;curved=0;fontColor=#000000;labelBackgroundColor=none;exitPerimeter=0;" parent="1" source="pQPK47cY3aiJMa17ZVE6-19" target="pQPK47cY3aiJMa17ZVE6-33" edge="1">
          <mxGeometry x="-0.1556" y="-7" relative="1" as="geometry">
            <mxPoint as="offset" />
            <mxPoint x="949" y="267.5" as="targetPoint" />
          </mxGeometry>
        </mxCell>
        <mxCell id="pQPK47cY3aiJMa17ZVE6-19" value="Binding expired?" style="rhombus;whiteSpace=wrap;html=1;strokeColor=#666666;fillColor=#ffffff;fontColor=#000000;" parent="1" vertex="1">
          <mxGeometry x="805" y="227" width="80" height="80" as="geometry" />
        </mxCell>
        <mxCell id="pQPK47cY3aiJMa17ZVE6-33" value="Return existing binding" style="ellipse;whiteSpace=wrap;html=1;strokeColor=#666666;fillColor=#ffffff;fontColor=#000000;" parent="1" vertex="1">
          <mxGeometry x="955" y="241" width="106" height="51" as="geometry" />
        </mxCell>
        <mxCell id="pQPK47cY3aiJMa17ZVE6-37" value="Return binding not found" style="ellipse;whiteSpace=wrap;html=1;strokeColor=#666666;fillColor=#ffffff;fontColor=#000000;" parent="1" vertex="1">
          <mxGeometry x="734" y="66" width="81" height="53" as="geometry" />
        </mxCell>
      </root>
    </mxGraphModel>
  </diagram>
</mxfile>
